<?xml version="1.0" encoding="utf-8" standalone="no"?>
<!DOCTYPE svg PUBLIC "-//W3C//DTD SVG 1.1//EN"
  "http://www.w3.org/Graphics/SVG/1.1/DTD/svg11.dtd">
<svg xmlns:xlink="http://www.w3.org/1999/xlink" width="530.82pt" height="81.84pt" viewBox="0 0 530.82 81.84" xmlns="http://www.w3.org/2000/svg" version="1.1">
 <metadata>
  <rdf:RDF xmlns:dc="http://purl.org/dc/elements/1.1/" xmlns:cc="http://creativecommons.org/ns#" xmlns:rdf="http://www.w3.org/1999/02/22-rdf-syntax-ns#">
   <cc:Work>
    <dc:type rdf:resource="http://purl.org/dc/dcmitype/StillImage"/>
    <dc:date>2026-07-22T18:16:32.023812</dc:date>
    <dc:format>image/svg+xml</dc:format>
    <dc:creator>
     <cc:Agent>
      <dc:title>Matplotlib v3.11.1, https://matplotlib.org/</dc:title>
     </cc:Agent>
    </dc:creator>
   </cc:Work>
  </rdf:RDF>
 </metadata>
 <defs>
  <style type="text/css">*{stroke-linejoin: round; stroke-linecap: butt}</style>
 </defs>
 <g id="figure_1">
  <g id="patch_1">
   <path d="M 0 81.84 
L 530.82 81.84 
L 530.82 0 
L 0 0 
z
" style="fill: #ffffff"/>
  </g>
  <g id="text_1">
   <!-- $\sup_{t \geq 0}\, \Vert A^{t} \Vert \;\leq\; e\,n\,\mathcal{K}(A)\,,\qquad \theta_{canary} \;\mapsto\; \mathcal{K}(A)\cdot\theta_{canary}$ -->
   <g style="fill: #1a2332" transform="translate(21.6 40.71) scale(0.21 -0.21)">
    <defs>
     <path id="DejaVuSans-56" d="M 2834 3397 
L 2834 2853 
Q 2591 2978 2328 3040 
Q 2066 3103 1784 3103 
Q 1356 3103 1142 2972 
Q 928 2841 928 2578 
Q 928 2378 1081 2264 
Q 1234 2150 1697 2047 
L 1894 2003 
Q 2506 1872 2764 1633 
Q 3022 1394 3022 966 
Q 3022 478 2636 193 
Q 2250 -91 1575 -91 
Q 1294 -91 989 -36 
Q 684 19 347 128 
L 347 722 
Q 666 556 975 473 
Q 1284 391 1588 391 
Q 1994 391 2212 530 
Q 2431 669 2431 922 
Q 2431 1156 2273 1281 
Q 2116 1406 1581 1522 
L 1381 1569 
Q 847 1681 609 1914 
Q 372 2147 372 2553 
Q 372 3047 722 3315 
Q 1072 3584 1716 3584 
Q 2034 3584 2315 3537 
Q 2597 3491 2834 3397 
z
" transform="scale(0.015625)"/>
     <path id="DejaVuSans-58" d="M 544 1381 
L 544 3500 
L 1119 3500 
L 1119 1403 
Q 1119 906 1312 657 
Q 1506 409 1894 409 
Q 2359 409 2629 706 
Q 2900 1003 2900 1516 
L 2900 3500 
L 3475 3500 
L 3475 0 
L 2900 0 
L 2900 538 
Q 2691 219 2414 64 
Q 2138 -91 1772 -91 
Q 1169 -91 856 284 
Q 544 659 544 1381 
z
M 1991 3584 
L 1991 3584 
z
" transform="scale(0.015625)"/>
     <path id="DejaVuSans-53" d="M 1159 525 
L 1159 -1331 
L 581 -1331 
L 581 3500 
L 1159 3500 
L 1159 2969 
Q 1341 3281 1617 3432 
Q 1894 3584 2278 3584 
Q 2916 3584 3314 3078 
Q 3713 2572 3713 1747 
Q 3713 922 3314 415 
Q 2916 -91 2278 -91 
Q 1894 -91 1617 61 
Q 1341 213 1159 525 
z
M 3116 1747 
Q 3116 2381 2855 2742 
Q 2594 3103 2138 3103 
Q 1681 3103 1420 2742 
Q 1159 2381 1159 1747 
Q 1159 1113 1420 752 
Q 1681 391 2138 391 
Q 2594 391 2855 752 
Q 3116 1113 3116 1747 
z
" transform="scale(0.015625)"/>
     <path id="DejaVuSans-Oblique-57" d="M 2706 3500 
L 2619 3053 
L 1472 3053 
L 1100 1153 
Q 1081 1047 1072 975 
Q 1063 903 1063 863 
Q 1063 663 1183 572 
Q 1303 481 1569 481 
L 2150 481 
L 2053 0 
L 1503 0 
Q 991 0 739 200 
Q 488 400 488 806 
Q 488 878 497 964 
Q 506 1050 525 1153 
L 897 3053 
L 409 3053 
L 500 3500 
L 978 3500 
L 1172 4494 
L 1747 4494 
L 1556 3500 
L 2706 3500 
z
" transform="scale(0.015625)"/>
     <path id="DejaVuSans-cef" d="M 678 3175 
L 678 3725 
L 4684 2578 
L 4684 2047 
L 678 897 
L 678 1453 
L 3681 2309 
L 678 3175 
z
M 4684 531 
L 4684 0 
L 678 0 
L 678 531 
L 4684 531 
z
" transform="scale(0.015625)"/>
     <path id="DejaVuSans-13" d="M 2034 4250 
Q 1547 4250 1301 3770 
Q 1056 3291 1056 2328 
Q 1056 1369 1301 889 
Q 1547 409 2034 409 
Q 2525 409 2770 889 
Q 3016 1369 3016 2328 
Q 3016 3291 2770 3770 
Q 2525 4250 2034 4250 
z
M 2034 4750 
Q 2819 4750 3233 4129 
Q 3647 3509 3647 2328 
Q 3647 1150 3233 529 
Q 2819 -91 2034 -91 
Q 1250 -91 836 529 
Q 422 1150 422 2328 
Q 422 3509 836 4129 
Q 1250 4750 2034 4750 
z
" transform="scale(0.015625)"/>
     <path id="DejaVuSans-af8" d="M 1344 4891 
L 1344 -1509 
L 813 -1509 
L 813 4891 
L 1344 4891 
z
M 2375 4891 
L 2375 -1509 
L 1844 -1509 
L 1844 4891 
L 2375 4891 
z
" transform="scale(0.015625)"/>
     <path id="DejaVuSans-Oblique-24" d="M 2356 4666 
L 3072 4666 
L 3938 0 
L 3278 0 
L 3084 1197 
L 984 1197 
L 325 0 
L -341 0 
L 2356 4666 
z
M 2584 4044 
L 1275 1722 
L 2988 1722 
L 2584 4044 
z
" transform="scale(0.015625)"/>
     <path id="DejaVuSans-cee" d="M 4684 3175 
L 1684 2309 
L 4684 1453 
L 4684 897 
L 678 2047 
L 678 2578 
L 4684 3725 
L 4684 3175 
z
M 678 531 
L 4684 531 
L 4684 0 
L 678 0 
L 678 531 
z
" transform="scale(0.015625)"/>
     <path id="DejaVuSans-Oblique-48" d="M 3078 2063 
Q 3088 2113 3092 2166 
Q 3097 2219 3097 2272 
Q 3097 2653 2873 2875 
Q 2650 3097 2266 3097 
Q 1838 3097 1509 2826 
Q 1181 2556 1013 2059 
L 3078 2063 
z
M 3578 1613 
L 903 1613 
Q 884 1494 878 1425 
Q 872 1356 872 1306 
Q 872 872 1139 634 
Q 1406 397 1894 397 
Q 2269 397 2603 481 
Q 2938 566 3225 728 
L 3116 159 
Q 2806 34 2476 -28 
Q 2147 -91 1806 -91 
Q 1078 -91 686 257 
Q 294 606 294 1247 
Q 294 1794 489 2264 
Q 684 2734 1063 3103 
Q 1306 3334 1642 3459 
Q 1978 3584 2356 3584 
Q 2950 3584 3301 3228 
Q 3653 2872 3653 2272 
Q 3653 2128 3634 1964 
Q 3616 1800 3578 1613 
z
" transform="scale(0.015625)"/>
     <path id="DejaVuSans-Oblique-51" d="M 3566 2113 
L 3156 0 
L 2578 0 
L 2988 2091 
Q 3016 2238 3031 2350 
Q 3047 2463 3047 2528 
Q 3047 2791 2881 2937 
Q 2716 3084 2419 3084 
Q 1956 3084 1622 2776 
Q 1288 2469 1184 1941 
L 800 0 
L 225 0 
L 903 3500 
L 1478 3500 
L 1363 2950 
Q 1603 3253 1940 3418 
Q 2278 3584 2650 3584 
Q 3113 3584 3367 3334 
Q 3622 3084 3622 2631 
Q 3622 2519 3608 2391 
Q 3594 2263 3566 2113 
z
" transform="scale(0.015625)"/>
     <path id="STIXNonUnicode-Italic-7d" d="M 1971 2874 
L 2010 2854 
Q 2528 3430 3142 3859 
Q 3757 4288 4275 4288 
Q 4621 4288 4816 4105 
Q 5011 3923 5011 3622 
Q 5011 3354 4864 3158 
Q 4717 2963 4486 2963 
Q 4346 2963 4256 3059 
Q 4166 3155 4166 3290 
Q 4166 3411 4220 3481 
Q 4275 3552 4342 3574 
Q 4410 3597 4464 3648 
Q 4518 3699 4518 3782 
Q 4518 3878 4441 3955 
Q 4365 4032 4230 4032 
Q 3789 4032 3232 3635 
Q 2675 3238 2118 2566 
Q 2336 1587 2835 960 
Q 3334 333 3904 333 
Q 4122 333 4371 464 
Q 4621 595 4768 806 
L 4896 704 
Q 4723 474 4569 326 
Q 4416 179 4128 48 
Q 3840 -83 3488 -83 
Q 2886 -83 2371 477 
Q 1856 1037 1690 1709 
L 1434 813 
Q 1280 262 1049 131 
Q 819 0 192 0 
L 237 154 
Q 429 154 557 374 
Q 685 595 858 1197 
L 1517 3514 
Q 1542 3590 1542 3661 
Q 1542 3853 1242 3853 
Q 1171 3853 1126 3846 
L 1158 4006 
Q 1882 4083 2355 4237 
L 1971 2874 
z
" transform="scale(0.015625)"/>
     <path id="DejaVuSans-b" d="M 1984 4856 
Q 1566 4138 1362 3434 
Q 1159 2731 1159 2009 
Q 1159 1288 1364 580 
Q 1569 -128 1984 -844 
L 1484 -844 
Q 1016 -109 783 600 
Q 550 1309 550 2009 
Q 550 2706 781 3412 
Q 1013 4119 1484 4856 
L 1984 4856 
z
" transform="scale(0.015625)"/>
     <path id="DejaVuSans-c" d="M 513 4856 
L 1013 4856 
Q 1481 4119 1714 3412 
Q 1947 2706 1947 2009 
Q 1947 1309 1714 600 
Q 1481 -109 1013 -844 
L 513 -844 
Q 928 -128 1133 580 
Q 1338 1288 1338 2009 
Q 1338 2731 1133 3434 
Q 928 4138 513 4856 
z
" transform="scale(0.015625)"/>
     <path id="DejaVuSans-f" d="M 750 794 
L 1409 794 
L 1409 256 
L 897 -744 
L 494 -744 
L 750 256 
L 750 794 
z
" transform="scale(0.015625)"/>
     <path id="DejaVuSans-Oblique-34c" d="M 2913 2219 
L 925 2219 
Q 791 1284 928 888 
Q 1100 400 1566 400 
Q 2034 400 2391 891 
Q 2703 1322 2913 2219 
z
M 3009 2750 
Q 3094 3638 2984 3950 
Q 2813 4444 2353 4444 
Q 1875 4444 1525 3956 
Q 1250 3563 1034 2750 
L 3009 2750 
z
M 2444 4913 
Q 3194 4913 3494 4250 
Q 3794 3591 3566 2422 
Q 3341 1256 2781 594 
Q 2225 -72 1475 -72 
Q 722 -72 425 594 
Q 128 1256 353 2422 
Q 581 3591 1134 4250 
Q 1691 4913 2444 4913 
z
" transform="scale(0.015625)"/>
     <path id="DejaVuSans-Oblique-46" d="M 3431 3366 
L 3316 2797 
Q 3109 2947 2876 3022 
Q 2644 3097 2394 3097 
Q 2119 3097 1870 3000 
Q 1622 2903 1453 2725 
Q 1184 2453 1037 2087 
Q 891 1722 891 1331 
Q 891 859 1127 628 
Q 1363 397 1844 397 
Q 2081 397 2348 469 
Q 2616 541 2906 684 
L 2797 116 
Q 2547 13 2283 -39 
Q 2019 -91 1741 -91 
Q 1044 -91 669 257 
Q 294 606 294 1253 
Q 294 1797 489 2255 
Q 684 2713 1069 3078 
Q 1331 3328 1684 3456 
Q 2038 3584 2456 3584 
Q 2700 3584 2940 3529 
Q 3181 3475 3431 3366 
z
" transform="scale(0.015625)"/>
     <path id="DejaVuSans-Oblique-44" d="M 3438 1997 
L 3047 0 
L 2472 0 
L 2578 531 
Q 2325 219 2001 64 
Q 1678 -91 1281 -91 
Q 834 -91 548 182 
Q 263 456 263 884 
Q 263 1497 752 1853 
Q 1241 2209 2100 2209 
L 2900 2209 
L 2931 2363 
Q 2938 2388 2941 2417 
Q 2944 2447 2944 2509 
Q 2944 2788 2717 2942 
Q 2491 3097 2081 3097 
Q 1800 3097 1504 3025 
Q 1209 2953 897 2809 
L 997 3341 
Q 1322 3463 1633 3523 
Q 1944 3584 2234 3584 
Q 2853 3584 3176 3315 
Q 3500 3047 3500 2534 
Q 3500 2431 3484 2292 
Q 3469 2153 3438 1997 
z
M 2816 1759 
L 2241 1759 
Q 1534 1759 1195 1570 
Q 856 1381 856 984 
Q 856 709 1029 553 
Q 1203 397 1509 397 
Q 1978 397 2328 733 
Q 2678 1069 2791 1631 
L 2816 1759 
z
" transform="scale(0.015625)"/>
     <path id="DejaVuSans-Oblique-55" d="M 2853 2969 
Q 2766 3016 2653 3041 
Q 2541 3066 2413 3066 
Q 1953 3066 1609 2717 
Q 1266 2369 1153 1784 
L 800 0 
L 225 0 
L 909 3500 
L 1484 3500 
L 1375 2956 
Q 1603 3259 1920 3421 
Q 2238 3584 2597 3584 
Q 2691 3584 2781 3573 
Q 2872 3563 2963 3538 
L 2853 2969 
z
" transform="scale(0.015625)"/>
     <path id="DejaVuSans-Oblique-5c" d="M 1588 -325 
Q 1188 -997 936 -1164 
Q 684 -1331 294 -1331 
L -159 -1331 
L -63 -850 
L 269 -850 
Q 509 -850 678 -719 
Q 847 -588 1056 -206 
L 1234 128 
L 459 3500 
L 1069 3500 
L 1650 819 
L 3256 3500 
L 3859 3500 
L 1588 -325 
z
" transform="scale(0.015625)"/>
     <path id="DejaVuSans-c30" d="M 4175 1741 
L 897 1741 
L 897 663 
L 366 663 
L 366 3350 
L 897 3350 
L 897 2272 
L 4175 2272 
L 3447 3000 
L 3822 3375 
L 5050 2147 
L 5050 1866 
L 3822 638 
L 3447 1013 
L 4175 1741 
z
" transform="scale(0.015625)"/>
     <path id="DejaVuSans-d4f" d="M 684 2619 
L 1344 2619 
L 1344 1825 
L 684 1825 
L 684 2619 
z
" transform="scale(0.015625)"/>
    </defs>
    <use xlink:href="#DejaVuSans-56" transform="translate(0 0.546875)"/>
    <use xlink:href="#DejaVuSans-58" transform="translate(52.099609 0.546875)"/>
    <use xlink:href="#DejaVuSans-53" transform="translate(115.478516 0.546875)"/>
    <use xlink:href="#DejaVuSans-Oblique-57" transform="translate(24 -90.953125) scale(0.7)"/>
    <use xlink:href="#DejaVuSans-cef" transform="translate(51.446289 -90.953125) scale(0.7)"/>
    <use xlink:href="#DejaVuSans-13" transform="translate(110.098633 -90.953125) scale(0.7)"/>
    <use xlink:href="#DejaVuSans-af8" transform="translate(211.426431 0.546875)"/>
    <use xlink:href="#DejaVuSans-Oblique-24" transform="translate(261.426431 0.546875)"/>
    <use xlink:href="#DejaVuSans-Oblique-57" transform="translate(336.851405 41.846875) scale(0.7)"/>
    <use xlink:href="#DejaVuSans-af8" transform="translate(367.032069 0.546875)"/>
    <use xlink:href="#DejaVuSans-cee" transform="translate(463.573626 0.546875)"/>
    <use xlink:href="#DejaVuSans-Oblique-48" transform="translate(593.904246 0.546875)"/>
    <use xlink:href="#DejaVuSans-Oblique-51" transform="translate(671.66336 0.546875)"/>
    <use xlink:href="#STIXNonUnicode-Italic-7d" transform="translate(751.277943 0.546875)"/>
    <use xlink:href="#DejaVuSans-b" transform="translate(832.17786 0.546875)"/>
    <use xlink:href="#DejaVuSans-Oblique-24" transform="translate(871.191532 0.546875)"/>
    <use xlink:href="#DejaVuSans-c" transform="translate(939.599735 0.546875)"/>
    <use xlink:href="#DejaVuSans-f" transform="translate(994.849083 0.546875)"/>
    <use xlink:href="#DejaVuSans-Oblique-34c" transform="translate(1240.942833 0.546875)"/>
    <use xlink:href="#DejaVuSans-Oblique-46" transform="translate(1302.124474 -14.453076) scale(0.7)"/>
    <use xlink:href="#DejaVuSans-Oblique-44" transform="translate(1340.610802 -14.453076) scale(0.7)"/>
    <use xlink:href="#DejaVuSans-Oblique-51" transform="translate(1383.50631 -14.453076) scale(0.7)"/>
    <use xlink:href="#DejaVuSans-Oblique-44" transform="translate(1427.871544 -14.453076) scale(0.7)"/>
    <use xlink:href="#DejaVuSans-Oblique-55" transform="translate(1470.767052 -14.453076) scale(0.7)"/>
    <use xlink:href="#DejaVuSans-Oblique-5c" transform="translate(1499.546349 -14.453076) scale(0.7)"/>
    <use xlink:href="#DejaVuSans-c30" transform="translate(1590.248063 0.546875)"/>
    <use xlink:href="#STIXNonUnicode-Italic-7d" transform="translate(1720.578683 0.546875)"/>
    <use xlink:href="#DejaVuSans-b" transform="translate(1801.478601 0.546875)"/>
    <use xlink:href="#DejaVuSans-Oblique-24" transform="translate(1840.492273 0.546875)"/>
    <use xlink:href="#DejaVuSans-c" transform="translate(1908.900476 0.546875)"/>
    <use xlink:href="#DejaVuSans-d4f" transform="translate(1967.396569 0.546875)"/>
    <use xlink:href="#DejaVuSans-Oblique-34c" transform="translate(2018.666101 0.546875)"/>
    <use xlink:href="#DejaVuSans-Oblique-46" transform="translate(2079.847741 -14.453076) scale(0.7)"/>
    <use xlink:href="#DejaVuSans-Oblique-44" transform="translate(2118.334069 -14.453076) scale(0.7)"/>
    <use xlink:href="#DejaVuSans-Oblique-51" transform="translate(2161.229577 -14.453076) scale(0.7)"/>
    <use xlink:href="#DejaVuSans-Oblique-44" transform="translate(2205.594812 -14.453076) scale(0.7)"/>
    <use xlink:href="#DejaVuSans-Oblique-55" transform="translate(2248.490319 -14.453076) scale(0.7)"/>
    <use xlink:href="#DejaVuSans-Oblique-5c" transform="translate(2277.269616 -14.453076) scale(0.7)"/>
   </g>
  </g>
 </g>
</svg>
